<svg width="178" height="116" viewBox="0 0 178 116" fill="none" xmlns="http://www.w3.org/2000/svg">
<path d="M37.176 36.6755C37.176 36.9635 35.832 37.1075 33.144 37.1075C30.488 37.1075 29.16 36.8835 29.16 36.4355V3.55547C29.16 3.33147 29.656 3.17147 30.648 3.07547C31.64 2.97947 32.472 2.93147 33.144 2.93147C35.832 2.93147 37.176 3.21947 37.176 3.79547V13.3955C38.968 12.8515 40.328 12.5795 41.256 12.5795C43.688 12.5795 45.608 13.2355 47.016 14.5475C48.424 15.8275 49.128 18.2275 49.128 21.7475V36.6275C49.128 36.9155 47.88 37.0595 45.384 37.0595C42.568 36.9635 41.16 36.8035 41.16 36.5795V22.4675C41.16 20.8995 40.648 20.1155 39.624 20.1155C38.92 20.1155 38.104 20.4515 37.176 21.1235V36.6755ZM56.2309 19.5875C55.3349 17.9875 54.8869 16.6915 54.8869 15.6995C54.8869 14.6755 55.1589 14.0195 55.7029 13.7315C57.5269 12.9315 60.0229 12.5315 63.1909 12.5315C66.3909 12.5315 68.6469 13.2835 69.9589 14.7875C71.2709 16.2595 71.9269 18.4515 71.9269 21.3635V28.9475H73.5589C74.1029 28.9475 74.5189 29.2675 74.8069 29.9075C75.1269 30.5475 75.2869 31.4275 75.2869 32.5475C75.2869 33.6675 74.9989 34.7715 74.4229 35.8595C73.8789 36.9475 73.1269 37.4915 72.1669 37.4915C70.4389 37.4915 69.0469 37.0275 67.9909 36.0995C67.5109 35.7155 67.1429 35.2515 66.8869 34.7075C65.4149 36.5635 63.1269 37.4915 60.0229 37.4915C57.6869 37.4915 55.7189 36.6595 54.1189 34.9955C52.5189 33.3315 51.7189 31.3635 51.7189 29.0915C51.7189 23.8755 54.8389 21.2675 61.0789 21.2675H63.7189V20.7875C63.7189 19.9555 63.5749 19.4275 63.2869 19.2035C63.0309 18.9475 62.4069 18.8195 61.4149 18.8195C60.1989 18.8195 58.4709 19.0755 56.2309 19.5875ZM60.0709 28.4195C60.0709 29.1235 60.2629 29.6675 60.6469 30.0515C61.0309 30.4035 61.5109 30.5795 62.0869 30.5795C62.6949 30.5795 63.2389 30.3395 63.7189 29.8595V26.1635H62.3749C60.8389 26.1635 60.0709 26.9155 60.0709 28.4195ZM29.4 41.5555C29.4 41.1715 30.776 40.9795 33.528 40.9795C36.312 40.9795 37.704 41.1875 37.704 41.6035V50.9155C39.08 50.6595 40.056 50.5315 40.632 50.5315C47.352 50.5315 50.712 54.3875 50.712 62.0995C50.712 66.3875 49.672 69.6995 47.592 72.0355C45.544 74.3395 42.616 75.4915 38.808 75.4915C35.032 75.4915 31.896 74.6435 29.4 72.9475V41.5555ZM39.288 58.0195C38.744 58.0195 38.216 58.1955 37.704 58.5475V67.7155C38.152 67.9075 38.616 68.0035 39.096 68.0035C39.608 68.0035 40.12 67.8115 40.632 67.4275C41.528 66.7875 41.976 65.2995 41.976 62.9635C41.976 59.6675 41.08 58.0195 39.288 58.0195ZM62.8815 74.7235C62.8815 74.9795 61.4095 75.1075 58.4655 75.1075C55.5535 75.1075 54.0975 74.9955 54.0975 74.7715V51.2035C54.0975 50.9795 55.5535 50.8675 58.4655 50.8675C61.4095 50.8675 62.8815 50.9635 62.8815 51.1555V74.7235ZM62.8815 48.3235C62.8815 48.5475 61.4095 48.6595 58.4655 48.6595C55.5535 48.6595 54.0975 48.5635 54.0975 48.3715V41.4595C54.0975 41.1395 55.5535 40.9795 58.4655 40.9795C61.4095 40.9795 62.8815 41.0755 62.8815 41.2675V48.3235ZM40.2 112.723C40.2 113.107 38.856 113.299 36.168 113.299C32.968 113.171 31.368 112.963 31.368 112.675V95.6835H28.92C28.28 95.6835 27.96 94.5795 27.96 92.3715C27.96 91.7955 28.008 91.0915 28.104 90.2595C28.232 89.4275 28.472 89.0115 28.824 89.0115H31.368V84.7875C31.368 84.1475 32.712 83.8275 35.4 83.8275C38.12 83.8275 39.48 84.0835 39.48 84.5955V87.6675L39.528 89.0115H43.608C44.152 89.0115 44.424 90.1315 44.424 92.3715C44.424 94.6115 44.152 95.7315 43.608 95.7315H40.2V112.723ZM47.8399 104.371C50.4319 105.939 52.4799 106.723 53.9839 106.723C54.9439 106.723 55.4239 106.387 55.4239 105.715C55.4239 105.235 54.5919 104.611 52.9279 103.843C48.9279 102.211 46.9279 99.5395 46.9279 95.8275C46.9279 93.4595 47.7919 91.6515 49.5199 90.4035C51.2479 89.1555 53.3119 88.5315 55.7119 88.5315C58.1439 88.5315 60.1919 88.7875 61.8559 89.2995C63.5519 89.8115 64.3999 90.4835 64.3999 91.3155C64.3999 92.0195 64.0479 92.9475 63.3439 94.0995C62.6719 95.2515 62.2079 95.8755 61.9519 95.9715C60.5759 95.2035 59.0879 94.8195 57.4879 94.8195C56.6239 94.8195 56.1919 95.1235 56.1919 95.7315C56.1919 96.1155 56.3519 96.4515 56.6719 96.7395C57.0239 96.9955 57.6479 97.3315 58.5439 97.7475C59.4399 98.1315 60.1759 98.4835 60.7519 98.8035C61.3599 99.1235 62.0319 99.5715 62.7679 100.147C64.3039 101.363 65.0719 102.947 65.0719 104.899C65.0719 107.459 64.2239 109.539 62.5279 111.139C60.8319 112.707 58.2719 113.491 54.8479 113.491C52.5759 113.491 50.5119 113.107 48.6559 112.339C46.7999 111.571 45.8719 110.515 45.8719 109.171C45.8719 108.275 46.0799 107.331 46.4959 106.339C46.9439 105.347 47.3919 104.691 47.8399 104.371Z" fill="white"/>
<rect x="0.5" y="0.5" width="15" height="15" rx="3.5" transform="matrix(-4.37114e-08 1 1 4.37114e-08 5.22335e-06 2.18557e-08)" fill="#27272A" stroke="#27272A"/>
<rect x="0.5" y="0.5" width="15" height="15" rx="3.5" transform="matrix(-4.37114e-08 1 1 4.37114e-08 4.26968e-06 20)" fill="#0C4A6E" stroke="#0369A1"/>
<rect x="0.5" y="0.5" width="15" height="15" rx="3.5" transform="matrix(-4.37114e-08 1 1 4.37114e-08 3.316e-06 40)" fill="#075985" stroke="#0284C7"/>
<rect x="0.5" y="0.5" width="15" height="15" rx="3.5" transform="matrix(-4.37114e-08 1 1 4.37114e-08 2.36233e-06 60)" fill="#0369A1" stroke="#0EA5E9"/>
<rect x="0.5" y="0.5" width="15" height="15" rx="3.5" transform="matrix(-4.37114e-08 1 1 4.37114e-08 1.88549e-06 80)" fill="#0284C7" stroke="#60A5FA"/>
<rect x="0.5" y="0.5" width="15" height="15" rx="3.5" transform="matrix(-4.37114e-08 1 1 4.37114e-08 9.31819e-07 100)" fill="#0EA5E9" stroke="#7DD3FC"/>
</svg>